<svg xmlns="http://www.w3.org/2000/svg" width="117" height="117" viewBox="0 0 117 117">
  <path fill="#FFFFFF" fill-rule="evenodd" d="M30.1827368,107.716211 C38.9128421,112.744421 48.4387368,115.261474 58.7604211,115.261474 C68.9465263,115.261474 78.4724211,112.744421 87.2084211,107.716211 C95.8088421,102.558316 102.688,95.6791579 107.845895,87.0787368 C112.874105,78.3427368 115.391158,68.9524211 115.391158,58.6307368 C115.391158,48.3090526 112.874105,38.7831579 107.845895,30.1827368 C102.688,21.4526316 95.8088421,14.5675789 87.2084211,9.54526316 C78.4724211,4.51705263 68.9465263,2 58.7604211,2 C48.4387368,2 38.9128421,4.51705263 30.1827368,9.54526316 C21.5823158,14.5675789 14.7031579,21.4526316 9.53936842,30.1827368 C4.51115789,38.7831579 2,48.3090526 2,58.6307368 C2,68.9524211 4.51115789,78.3427368 9.53936842,87.0787368 C14.7031579,95.6791579 21.5823158,102.558316 30.1827368,107.716211 L30.1827368,107.716211 Z M25.2842105,25.1545263 C29.5166316,21.0517895 34.5448421,17.6151579 40.3688421,15.0981053 C46.1928421,12.5869474 52.2762105,11.3962105 58.7604211,11.3962105 C65.1090526,11.3962105 71.1983158,12.5869474 77.0164211,15.0981053 C82.8404211,17.6151579 87.8686316,21.0517895 92.1010526,25.1545263 C96.3334737,29.3869474 99.776,34.4151579 102.287158,40.2391579 C104.804211,46.0631579 105.994947,52.1465263 105.994947,58.6307368 C105.994947,64.9793684 104.804211,71.1983158 102.287158,77.0223158 C99.776,82.8404211 96.3334737,87.8686316 92.1010526,91.9713684 C87.8686316,96.2037895 82.8404211,99.6463158 77.0164211,102.157474 C71.1983158,104.674526 65.1090526,105.865263 58.7604211,105.865263 C52.2762105,105.865263 46.1928421,104.674526 40.3688421,102.157474 C34.5448421,99.6463158 29.5166316,96.2037895 25.2842105,91.9713684 C21.0517895,87.8686316 17.6092632,82.8404211 15.0981053,77.0223158 C12.5810526,71.1983158 11.3903158,64.9793684 11.3903158,58.6307368 C11.3903158,52.1465263 12.5810526,46.0631579 15.0981053,40.2391579 C17.6092632,34.4151579 21.0517895,29.3869474 25.2842105,25.1545263 L25.2842105,25.1545263 Z M39.8383158,49.1048421 C42.3553684,49.1048421 44.6012632,48.1793684 46.4522105,46.3225263 C48.3090526,44.4715789 49.2345263,42.2256842 49.2345263,39.5789474 C49.2345263,37.0618947 48.3090526,34.816 46.4522105,32.9650526 C44.6012632,31.1082105 42.3553684,30.1827368 39.8383158,30.1827368 C37.1915789,30.1827368 34.9456842,31.1082105 33.0888421,32.9650526 C31.2378947,34.816 30.3124211,37.0618947 30.3124211,39.5789474 C30.3124211,42.2256842 31.2378947,44.4715789 33.0888421,46.3225263 C34.9456842,48.1793684 37.1915789,49.1048421 39.8383158,49.1048421 L39.8383158,49.1048421 Z M31.8981053,86.8134737 C32.5642105,88.0042105 33.4896842,88.6644211 34.8101053,89.0593684 C36.0008421,89.4602105 37.1915789,89.4602105 38.3823158,88.8 C39.4433684,88.2694737 40.2332632,87.344 40.6341053,86.0176842 C41.9545263,82.0505263 44.2063158,78.8732632 47.5132632,76.4917895 C50.8202105,73.9806316 54.528,72.7898947 58.7604211,72.7898947 C62.8631579,72.7898947 66.5650526,73.9806316 69.872,76.4917895 C73.1848421,78.8732632 75.4307368,82.0505263 76.7511579,86.0176842 C77.152,87.344 77.9477895,88.2694737 79.1326316,88.8 C80.3292632,89.4602105 81.5141053,89.4602105 82.7107368,89.0593684 C83.9014737,88.6644211 84.8269474,88.0042105 85.4871579,86.8134737 C86.0176842,85.6227368 86.1473684,84.432 85.7524211,83.2412632 C83.9014737,77.2875789 80.4589474,72.5246316 75.5663158,68.8168421 C70.5381053,65.2446316 64.9793684,63.3936842 58.7604211,63.3936842 C52.4117895,63.3936842 46.8530526,65.2446316 41.8248421,68.8168421 C36.9263158,72.5246316 33.4896842,77.2875789 31.6387368,83.2412632 C31.2378947,84.432 31.3734737,85.6227368 31.8981053,86.8134737 L31.8981053,86.8134737 Z M77.6825263,49.1048421 C80.1936842,49.1048421 82.4454737,48.1793684 84.2964211,46.3225263 C86.1473684,44.4715789 87.0728421,42.2256842 87.0728421,39.5789474 C87.0728421,37.0618947 86.1473684,34.816 84.2964211,32.9650526 C82.4454737,31.1082105 80.1936842,30.1827368 77.6825263,30.1827368 C75.0357895,30.1827368 72.784,31.1082105 70.9330526,32.9650526 C69.0821053,34.816 68.1507368,37.0618947 68.1507368,39.5789474 C68.1507368,42.2256842 69.0821053,44.4715789 70.9330526,46.3225263 C72.784,48.1793684 75.0357895,49.1048421 77.6825263,49.1048421 L77.6825263,49.1048421 Z"/>
</svg>
