<svg xmlns="http://www.w3.org/2000/svg" width="112" height="112" viewBox="0 0 112 112">
  <path fill="#FFFFFF" fill-rule="evenodd" d="M27.905865,104.436771 C36.4829448,109.389404 45.8476564,111.868623 55.9826258,111.868623 C65.9959755,111.868623 75.3548957,109.389404 83.9319755,104.436771 C92.3816442,99.3564025 99.1402209,92.7083779 104.213497,84.109492 C109.153571,75.6383411 111.620712,66.255627 111.620712,56.0890847 C111.620712,45.9225423 109.153571,36.5398282 104.213497,28.0686773 C99.1402209,19.4697914 92.3816442,12.6882258 83.9319755,7.73559264 C75.3548957,2.78876564 65.9959755,0.309546012 55.9826258,0.309546012 C45.8476564,0.309546012 36.4829448,2.78876564 27.905865,7.73559264 C19.4561963,12.6882258 12.6976196,19.4697914 7.63013497,28.0686773 C2.69006135,36.5398282 0.217128834,45.9225423 0.217128834,56.0890847 C0.217128834,66.255627 2.69006135,75.6383411 7.63013497,84.109492 C12.6976196,92.7083779 19.4561963,99.3564025 27.905865,104.436771 L27.905865,104.436771 Z M23.0989939,23.1160442 C27.257227,19.0749742 32.1973006,15.6899975 37.9134233,13.2107779 C43.6353374,10.7373644 49.6120736,9.56452515 55.9826258,9.56452515 C62.2257669,9.56452515 68.2025031,10.7373644 73.9244172,13.2107779 C79.6405399,15.6899975 84.5806135,19.0749742 88.744638,23.1160442 C92.9028712,27.2848491 96.2792638,32.2374822 98.7521963,37.9739436 C101.219337,43.7104049 102.389202,49.7023362 102.389202,56.0890847 C102.389202,62.342292 101.219337,68.4677644 98.7521963,74.2042258 C96.2792638,79.934881 92.9028712,84.8875141 88.744638,88.928584 C84.5806135,93.097389 79.6405399,96.4881718 73.9244172,98.9615853 C68.2025031,101.440805 62.2257669,102.613644 55.9826258,102.613644 C49.6120736,102.613644 43.6353374,101.440805 37.9134233,98.9615853 C32.1973006,96.4881718 27.257227,93.097389 23.0989939,88.928584 C18.9349693,84.8875141 15.5585767,79.934881 13.0856442,74.2042258 C10.6185031,68.4677644 9.44863804,62.342292 9.44863804,56.0890847 C9.44863804,49.7023362 10.6185031,43.7104049 13.0856442,37.9739436 C15.5585767,32.2374822 18.9349693,27.2848491 23.0989939,23.1160442 L23.0989939,23.1160442 Z M37.3979877,46.7063706 C39.8651288,46.7063706 42.0774479,45.7948074 43.8959509,43.9658748 C45.714454,42.1427485 46.6237055,39.930611 46.6237055,37.3236564 C46.6237055,34.8444368 45.714454,32.6322994 43.8959509,30.8033669 C42.0774479,28.9802405 39.8651288,28.0686773 37.3979877,28.0686773 C34.7976442,28.0686773 32.5853252,28.9802405 30.7668221,30.8033669 C28.948319,32.6322994 28.0390675,34.8444368 28.0390675,37.3236564 C28.0390675,39.930611 28.948319,42.1427485 30.7668221,43.9658748 C32.5853252,45.7948074 34.7976442,46.7063706 37.3979877,46.7063706 L37.3979877,46.7063706 Z M39.3439018,83.3256638 C44.2839755,86.8441816 49.7452761,88.667308 55.9826258,88.667308 C62.0925644,88.667308 67.553865,86.8441816 72.4939387,83.3256638 C77.3008098,79.679411 80.6829939,74.9822479 82.5014969,69.1180515 C82.8953129,67.9452123 82.7621104,66.772373 82.2408834,65.5995337 C81.5922454,64.4266945 80.6829939,63.6486724 79.5131288,63.2538552 C78.3432638,62.8648442 77.1733988,62.9925791 76.0035337,63.5151313 C74.8336687,64.1654184 74.0518282,65.0827877 73.6638037,66.383362 C72.3607362,70.2908908 70.1542086,73.4203975 66.905227,75.7660761 C63.6562454,78.2452957 60.0134479,79.418135 55.9826258,79.418135 C51.8243926,79.418135 48.1873865,78.2452957 44.9326135,75.7660761 C41.6836319,73.4203975 39.4771043,70.2908908 38.1740368,66.383362 C37.7860123,65.0827877 37.0041718,64.1654184 35.9675092,63.5151313 C34.7976442,62.9925791 33.6277791,62.8648442 32.4579141,63.2538552 C31.1548466,63.6486724 30.2455951,64.4266945 29.5969571,65.5995337 C29.0757301,66.772373 28.948319,67.9452123 29.3363436,69.1180515 C31.1548466,74.9822479 34.5370307,79.679411 39.3439018,83.3256638 L39.3439018,83.3256638 Z M74.5730552,46.7063706 C77.0459877,46.7063706 79.2525153,45.7948074 81.0710184,43.9658748 C82.8953129,42.1427485 83.8045644,39.930611 83.8045644,37.3236564 C83.8045644,34.8444368 82.8953129,32.6322994 81.0710184,30.8033669 C79.2525153,28.9802405 77.0459877,28.0686773 74.5730552,28.0686773 C71.9727117,28.0686773 69.766184,28.9802405 67.9418896,30.8033669 C66.1233865,32.6322994 65.214135,34.8444368 65.214135,37.3236564 C65.214135,39.930611 66.1233865,42.1427485 67.9418896,43.9658748 C69.766184,45.7948074 71.9727117,46.7063706 74.5730552,46.7063706 L74.5730552,46.7063706 Z"/>
</svg>
